<svg xmlns="http://www.w3.org/2000/svg" width="1200" height="720" viewBox="0 0 1200 720" role="img" aria-labelledby="title desc">
<title id="title">Zabbix Auto Report AI — architecture réelle</title><desc id="desc">Collecte JSON-RPC, filtrage, recommandations déterministes d’abord, Ollama local en recours, Excel et email optionnel.</desc>
<defs>
 <pattern id="grid" width="32" height="32" patternUnits="userSpaceOnUse"><path d="M32 0H0V32" fill="none" stroke="#172033" stroke-width="1"/></pattern>
 <filter id="shadow" x="-20%" y="-20%" width="140%" height="140%"><feDropShadow dx="0" dy="8" stdDeviation="10" flood-color="#000" flood-opacity=".35"/></filter>
 <marker id="arrow" markerWidth="10" markerHeight="10" refX="8" refY="5" orient="auto"><path d="M0 0L10 5L0 10Z" fill="#64748b"/></marker>
 <marker id="arrowCyan" markerWidth="10" markerHeight="10" refX="8" refY="5" orient="auto"><path d="M0 0L10 5L0 10Z" fill="#22d3ee"/></marker>
 <style>text{font-family:Inter,Segoe UI,Arial,sans-serif} .title{font-size:28px;font-weight:700;fill:#f8fafc}.sub{font-size:14px;fill:#94a3b8}.name{font-size:16px;font-weight:700;fill:#f8fafc}.detail{font-size:12px;fill:#cbd5e1}.tiny{font-size:11px;fill:#94a3b8}.zone{font-size:11px;font-weight:700;letter-spacing:1.5px}.label{font-size:11px;font-weight:600;fill:#cbd5e1} </style>
</defs>
<rect width="1200" height="720" rx="18" fill="#070b14"/><rect width="1200" height="720" rx="18" fill="url(#grid)" opacity=".65"/>
<circle cx="46" cy="47" r="7" fill="#22d3ee"/><text x="66" y="56" class="title">Zabbix Auto Report AI — architecture réelle</text><text x="46" y="84" class="sub">Collecte JSON-RPC, filtrage, recommandations déterministes d’abord, Ollama local en recours, Excel et email optionnel.</text>

<rect x="35" y="115" width="240" height="430" rx="16" fill="#0b1220" fill-opacity=".55" stroke="#fbbf24" stroke-width="1.5" stroke-dasharray="8 7"/><text x="51" y="140" class="zone" fill="#fbbf24">SYSTÈME EXTERNE</text>
<rect x="300" y="115" width="865" height="430" rx="16" fill="#0b1220" fill-opacity=".55" stroke="#34d399" stroke-width="1.5" stroke-dasharray="8 7"/><text x="316" y="140" class="zone" fill="#34d399">TRAITEMENT LOCAL</text>
<g filter="url(#shadow)"><rect x="60" y="230" width="190" height="105" rx="12" fill="#0f172a"/><rect x="60" y="230" width="190" height="105" rx="12" fill="#78350f" fill-opacity=".42" stroke="#fbbf24" stroke-width="1.7"/></g>
<circle cx="80" cy="253" r="5" fill="#fbbf24"/><text x="94" y="259" class="name">API Zabbix</text>
<text x="80" y="282" class="detail">Login + version</text>
<text x="80" y="299" class="detail">Hôtes / problèmes / triggers</text>
<text x="80" y="316" class="detail">Disponibilité</text>
<g filter="url(#shadow)"><rect x="330" y="170" width="190" height="120" rx="12" fill="#0f172a"/><rect x="330" y="170" width="190" height="120" rx="12" fill="#064e3b" fill-opacity=".42" stroke="#34d399" stroke-width="1.7"/></g>
<circle cx="350" cy="193" r="5" fill="#34d399"/><text x="364" y="199" class="name">Collecte &amp; filtrage</text>
<text x="350" y="222" class="detail">JSON-RPC</text>
<text x="350" y="239" class="detail">Exclusions explicites</text>
<text x="350" y="256" class="detail">Classification hôte / OS</text>
<g filter="url(#shadow)"><rect x="570" y="140" width="230" height="125" rx="12" fill="#0f172a"/><rect x="570" y="140" width="230" height="125" rx="12" fill="#064e3b" fill-opacity=".42" stroke="#34d399" stroke-width="1.7"/></g>
<circle cx="590" cy="163" r="5" fill="#34d399"/><text x="604" y="169" class="name">Référentiel humain</text>
<text x="590" y="192" class="detail">Motifs connus</text>
<text x="590" y="209" class="detail">Commandes par OS</text>
<text x="590" y="226" class="detail">Source principale</text>
<g filter="url(#shadow)"><rect x="570" y="325" width="230" height="105" rx="12" fill="#0f172a"/><rect x="570" y="325" width="230" height="105" rx="12" fill="#1e293b" fill-opacity=".42" stroke="#64748b" stroke-width="1.7"/></g>
<circle cx="590" cy="348" r="5" fill="#64748b"/><text x="604" y="354" class="name">Ollama local</text>
<text x="590" y="377" class="detail">Cas inconnus uniquement</text>
<text x="590" y="394" class="detail">2 phrases de diagnostic</text>
<text x="590" y="411" class="detail">Erreur conservée</text>
<rect x="708" y="337" width="78" height="21" rx="10" fill="#64748b" fill-opacity=".18"/><text x="747" y="352" text-anchor="middle" class="tiny" fill="#64748b">RECOURS</text>
<g filter="url(#shadow)"><rect x="850" y="165" width="270" height="130" rx="12" fill="#0f172a"/><rect x="850" y="165" width="270" height="130" rx="12" fill="#4c1d95" fill-opacity=".42" stroke="#a78bfa" stroke-width="1.7"/></g>
<circle cx="870" cy="188" r="5" fill="#a78bfa"/><text x="884" y="194" class="name">Générateur Excel</text>
<text x="870" y="217" class="detail">Rapport + inventaire + filtrés</text>
<text x="870" y="234" class="detail">Analyse &amp; tendance 12 semaines</text>
<text x="870" y="251" class="detail">openpyxl</text>
<g filter="url(#shadow)"><rect x="850" y="365" width="270" height="110" rx="12" fill="#0f172a"/><rect x="850" y="365" width="270" height="110" rx="12" fill="#4c1d95" fill-opacity=".42" stroke="#a78bfa" stroke-width="1.7"/></g>
<circle cx="870" cy="388" r="5" fill="#a78bfa"/><text x="884" y="394" class="name">État &amp; diffusion</text>
<text x="870" y="417" class="detail">recurrence_state.json</text>
<text x="870" y="434" class="detail">Fichier .xlsx local</text>
<text x="870" y="451" class="detail">SMTP SSL sauf --no-email</text>
<line x1="250" y1="282" x2="330" y2="230" stroke="#64748b" stroke-width="2" marker-end="url(#arrow)"/>
<rect x="257.6" y="237.0" width="64.8" height="19" rx="8" fill="#070b14"/><text x="290.0" y="251.0" text-anchor="middle" class="label">JSON-RPC</text>
<line x1="520" y1="230" x2="570" y2="202" stroke="#64748b" stroke-width="2" marker-end="url(#arrow)"/>
<rect x="502.7" y="197.0" width="84.6" height="19" rx="8" fill="#070b14"/><text x="545.0" y="211.0" text-anchor="middle" class="label">motif connu</text>
<line x1="520" y1="255" x2="570" y2="377" stroke="#64748b" stroke-width="2" stroke-dasharray="6 5" marker-end="url(#arrow)"/>
<rect x="515.9" y="297.0" width="58.199999999999996" height="19" rx="8" fill="#070b14"/><text x="545.0" y="311.0" text-anchor="middle" class="label">inconnu</text>
<line x1="800" y1="202" x2="850" y2="230" stroke="#64748b" stroke-width="2" marker-end="url(#arrow)"/>
<rect x="802.5" y="197.0" width="45.0" height="19" rx="8" fill="#070b14"/><text x="825.0" y="211.0" text-anchor="middle" class="label">fiche</text>
<line x1="800" y1="377" x2="850" y2="260" stroke="#64748b" stroke-width="2" stroke-dasharray="6 5" marker-end="url(#arrow)"/>
<rect x="786.0" y="299.5" width="78.0" height="19" rx="8" fill="#070b14"/><text x="825.0" y="313.5" text-anchor="middle" class="label">diagnostic</text>
<line x1="985" y1="295" x2="985" y2="365" stroke="#64748b" stroke-width="2" marker-end="url(#arrow)"/>
<rect x="919.6" y="311.0" width="130.8" height="19" rx="8" fill="#070b14"/><text x="985.0" y="325.0" text-anchor="middle" class="label">sauvegarde / email</text>
<circle cx="55" cy="620" r="5" fill="#22d3ee"/><text x="67" y="624" class="tiny">Entrée / UI</text>
<circle cx="225" cy="620" r="5" fill="#34d399"/><text x="237" y="624" class="tiny">Traitement réel</text>
<circle cx="395" cy="620" r="5" fill="#a78bfa"/><text x="407" y="624" class="tiny">Données / sortie</text>
<circle cx="565" cy="620" r="5" fill="#fb7185"/><text x="577" y="624" class="tiny">Sécurité / humain</text>
<circle cx="735" cy="620" r="5" fill="#fbbf24"/><text x="747" y="624" class="tiny">Service externe</text>
<circle cx="905" cy="620" r="5" fill="#64748b"/><text x="917" y="624" class="tiny">Optionnel</text>
</svg>